<?xml version="1.0" standalone="no"?>
<!DOCTYPE svg PUBLIC "-//W3C//DTD SVG 20010904//EN"
 "http://www.w3.org/TR/2001/REC-SVG-20010904/DTD/svg10.dtd">
<svg version="1.0" xmlns="http://www.w3.org/2000/svg"
 width="1200.000000pt" height="480.000000pt" viewBox="0 0 1200.000000 480.000000"
 preserveAspectRatio="xMidYMid meet">

<g transform="translate(0.000000,480.000000) scale(0.100000,-0.100000)"
fill="#000000" stroke="none">
<path d="M0 2400 l0 -2400 6000 0 6000 0 0 2400 0 2400 -6000 0 -6000 0 0
-2400z m2940 1010 l0 -200 -1245 0 -1245 0 0 200 0 200 1245 0 1245 0 0 -200z
m3090 -502 l0 -198 -2790 0 -2790 0 0 148 1 147 43 -105 44 -105 42 0 c43 0
43 0 60 50 l18 50 11 -28 c6 -15 14 -39 17 -52 5 -22 12 -25 49 -25 l43 0 41
103 c23 56 41 105 41 110 0 4 -18 7 -41 7 -37 0 -41 -3 -55 -37 -33 -84 -30
-82 -49 -20 -18 56 -19 57 -56 57 -36 0 -38 -2 -54 -50 -9 -27 -20 -50 -24
-50 -4 0 -15 23 -25 50 -18 50 -18 50 -62 50 l-44 0 0 45 0 44 58 3 c31 2
1287 3 2789 3 l2733 0 0 -197z m-3097 -477 l77 -1 0 -65 0 -65 -155 0 -155 0
0 -30 0 -30 155 0 155 0 0 -65 0 -65 -155 0 -155 0 0 -25 0 -25 155 0 155 0 0
-70 0 -70 -270 0 -270 0 0 255 0 255 168 2 c92 2 178 2 192 1 14 -1 60 -2 103
-2z m-1863 -66 l0 -65 -160 0 -160 0 0 -30 0 -30 160 0 160 0 0 -65 0 -65
-160 0 -160 0 0 -25 0 -24 158 -3 157 -3 3 -67 3 -68 -276 0 -275 0 0 255 0
255 275 0 275 0 0 -65z m310 -110 l0 -175 155 0 155 0 0 -80 0 -80 -270 0
-270 0 0 255 0 255 115 0 115 0 0 -175z m620 -80 l0 -255 -115 0 -115 0 0 255
0 255 115 0 115 0 0 -255z m1700 188 l0 -68 -145 -115 -146 -115 146 -3 145
-3 0 -69 0 -70 -305 0 -305 0 0 68 0 67 153 120 152 120 -153 3 -152 3 0 64 0
65 305 0 305 0 0 -67z m630 2 l0 -65 -155 0 -155 0 0 -30 0 -30 155 0 155 0 0
-65 0 -65 -155 0 -155 0 0 -25 0 -25 155 0 155 0 0 -70 0 -70 -270 0 -269 0
-3 63 c-2 34 -2 149 0 255 l3 192 269 0 270 0 0 -65z m595 46 c22 -10 51 -31
65 -45 22 -24 25 -37 25 -96 0 -62 -3 -72 -29 -99 l-30 -31 22 -23 c28 -30 42
-77 42 -144 l0 -53 -105 0 -105 0 0 73 c0 95 -13 110 -102 111 l-63 1 -3 -92
-3 -93 -114 0 -115 0 0 255 0 255 238 0 c209 0 242 -3 277 -19z m840 8 c107
-30 150 -164 79 -248 l-25 -30 21 -29 c25 -33 39 -89 40 -149 l0 -43 -105 0
-105 0 0 66 c0 36 -4 74 -10 84 -12 23 -61 40 -116 40 l-44 0 0 -95 0 -95
-115 0 -115 0 0 255 0 255 228 0 c134 0 243 -5 267 -11z m786 -246 l130 -253
-110 0 -111 0 -20 40 -20 40 -119 0 -118 0 -18 -40 -18 -40 -113 0 -113 0 90
173 c49 94 109 209 132 255 l42 83 118 -3 118 -3 130 -252z m469 132 c46 -69
86 -128 90 -130 4 -2 47 54 95 125 l89 130 103 0 103 0 0 -255 0 -255 -115 0
-115 0 0 92 0 92 -56 -77 -55 -77 -47 0 -47 1 -50 75 -50 75 -3 -91 -3 -90
-114 0 -115 0 0 255 0 255 104 0 103 0 83 -125z m790 -130 l0 -255 -115 0
-115 0 0 255 0 255 115 0 115 0 0 -255z m595 236 c22 -10 51 -31 65 -45 22
-24 25 -37 25 -96 0 -62 -3 -72 -29 -99 l-30 -31 22 -22 c30 -33 42 -71 42
-139 l0 -59 -105 0 -105 0 0 73 c0 95 -13 110 -102 111 l-63 1 -3 -92 -3 -93
-114 0 -115 0 0 255 0 255 238 0 c209 0 242 -3 277 -19z m715 -46 l0 -65 -155
0 -155 0 0 -30 0 -30 155 0 155 0 0 -65 0 -65 -155 0 -155 0 0 -25 0 -25 155
0 155 0 0 -70 0 -70 -270 0 -270 0 0 255 0 255 270 0 270 0 0 -65z m696 19
c-3 -26 -6 -57 -6 -69 0 -17 -36 -51 -144 -136 l-144 -114 146 -5 147 -5 3
-67 3 -68 -306 0 -305 0 0 70 0 70 148 117 147 118 -147 3 -148 3 0 64 0 65
306 0 307 0 -7 -46z m-7426 -204 l0 -80 -160 0 -160 0 0 73 c0 41 3 77 7 80 3
4 75 7 160 7 l153 0 0 -80z m8717 -196 c-3 -3 -12 -4 -19 -1 -8 3 -5 6 6 6 11
1 17 -2 13 -5z m56 -1 c-7 -2 -21 -2 -30 0 -10 3 -4 5 12 5 17 0 24 -2 18 -5z
m184 -349 c-3 -3 -12 -4 -19 -1 -8 3 -5 6 6 6 11 1 17 -2 13 -5z m-8987 -785
c0 -431 -3 -648 -10 -644 -14 9 -14 1295 0 1295 7 0 10 -224 10 -651z m585
628 c85 -47 109 -165 50 -243 -95 -125 -295 -57 -295 100 0 130 132 207 245
143z m8338 -14 c-7 -2 -19 -2 -25 0 -7 3 -2 5 12 5 14 0 19 -2 13 -5z m-10245
-96 c2 -55 0 -67 -13 -67 -12 0 -15 14 -15 71 0 52 3 70 13 67 7 -3 13 -29 15
-71z m872 33 c4 -30 6 -32 19 -17 7 10 23 17 34 17 l21 0 -21 -22 -22 -21 20
-29 c20 -28 20 -28 1 -28 -11 0 -22 7 -26 15 -3 8 -10 15 -16 15 -5 0 -10 -7
-10 -15 0 -8 -9 -15 -19 -15 -18 0 -20 6 -17 68 4 80 3 75 19 70 6 -3 14 -20
17 -38z m-1050 20 c0 -5 -9 -10 -20 -10 -11 0 -20 5 -20 10 0 6 9 10 20 10 11
0 20 -4 20 -10z m572 -20 c19 -17 19 -20 5 -26 -18 -7 -24 -54 -7 -54 6 0 10
-5 10 -11 0 -6 -10 -9 -22 -7 -17 2 -24 11 -26 33 -2 16 -8 33 -14 36 -6 4 -3
14 8 27 24 26 21 26 46 2z m2266 3 c27 -25 35 -65 17 -91 -13 -17 -24 -20 -63
-18 -26 2 -50 4 -53 5 -12 2 -16 36 -8 59 7 18 16 22 49 22 39 0 40 -1 40 -35
0 -36 13 -47 24 -19 19 50 -60 102 -107 71 -61 -40 -34 -119 41 -125 49 -4 57
-22 10 -22 -74 0 -119 53 -98 115 6 19 19 39 28 45 28 16 98 12 120 -7z m212
-48 c0 -51 -3 -65 -15 -65 -11 0 -15 12 -16 43 l-1 42 -15 -43 c-19 -55 -41
-52 -62 8 l-16 45 -3 -47 c-4 -69 -22 -59 -22 12 0 57 1 60 25 60 14 0 25 -6
25 -12 1 -7 7 -26 14 -43 l13 -30 12 42 c8 30 17 43 34 46 12 2 23 5 25 6 1 0
2 -28 2 -64z m190 28 c0 -34 1 -35 18 -20 27 24 50 23 28 -1 -15 -18 -15 -21
5 -45 20 -26 20 -27 1 -27 -11 0 -22 7 -26 15 -3 8 -10 15 -16 15 -5 0 -10 -7
-10 -15 0 -8 -7 -15 -15 -15 -12 0 -15 14 -15 65 0 51 3 65 15 65 11 0 15 -11
15 -37z m477 21 c-3 -3 -12 -4 -19 -1 -8 3 -5 6 6 6 11 1 17 -2 13 -5z m-4053
-10 c28 -11 17 -26 -14 -19 -18 4 -30 3 -30 -4 0 -5 12 -11 28 -13 21 -2 27
-8 27 -28 0 -22 -4 -25 -39 -25 -24 0 -41 5 -44 14 -3 10 3 11 28 6 23 -5 30
-4 26 4 -4 6 -16 11 -27 11 -25 0 -35 25 -19 45 13 16 38 19 64 9z m130 -10
c19 -18 21 -55 4 -72 -13 -13 -57 -16 -74 -4 -20 14 -25 45 -9 68 18 28 56 32
79 8z m134 4 c21 -21 13 -29 -23 -22 -31 5 -35 4 -35 -14 0 -28 15 -35 39 -20
25 15 39 4 21 -17 -15 -18 -61 -20 -78 -3 -15 15 -15 61 0 76 7 7 24 12 38 12
14 0 31 -5 38 -12z m70 -41 c3 -40 0 -47 -15 -47 -14 0 -19 9 -20 38 -3 46 3
65 20 60 6 -3 13 -25 15 -51z m110 41 c7 -7 12 -29 12 -49 l0 -38 -47 2 c-41
2 -48 5 -48 22 0 14 10 23 34 31 22 7 30 14 22 19 -7 4 -18 2 -24 -4 -15 -15
-27 -14 -27 3 0 25 57 35 78 14z m252 -8 c16 -29 13 -80 -5 -80 -8 0 -15 9
-15 19 0 30 -11 51 -26 51 -9 0 -14 -12 -14 -35 0 -28 -4 -35 -19 -35 -16 0
-18 7 -16 48 2 26 4 47 4 47 1 1 19 1 41 2 30 2 42 -3 50 -17z m118 8 c7 -7
12 -20 12 -30 0 -14 -8 -18 -36 -18 -22 0 -33 -4 -29 -11 4 -6 19 -7 37 -4 23
6 29 4 26 -6 -3 -9 -20 -14 -44 -14 -33 0 -40 4 -48 27 -8 22 -6 32 9 48 20
22 55 26 73 8z m157 -3 c16 -49 18 -50 28 -17 13 42 36 39 52 -8 l12 -35 7 32
c7 32 22 50 32 40 3 -2 0 -25 -7 -51 -9 -39 -15 -46 -35 -46 -17 0 -24 6 -24
19 0 30 -17 34 -24 5 -11 -43 -46 -28 -62 26 -8 25 -14 46 -14 48 0 10 32 -1
35 -13z m249 -1 c34 -34 11 -84 -39 -84 -35 0 -55 20 -55 54 0 22 28 46 55 46
13 0 31 -7 39 -16z m106 1 c0 -7 -7 -15 -15 -19 -9 -3 -15 -18 -15 -36 0 -20
-5 -30 -15 -30 -11 0 -15 12 -15 49 0 49 1 50 30 49 17 -1 30 -7 30 -13z m231
-1 c12 -15 10 -16 -19 -10 -18 5 -32 4 -32 -2 0 -5 14 -12 31 -16 25 -5 30
-10 27 -28 -2 -19 -9 -23 -42 -23 -24 0 -41 5 -44 14 -3 10 3 12 29 6 23 -5
31 -4 24 3 -5 6 -19 12 -30 14 -24 4 -33 37 -13 49 21 14 54 10 69 -7z m1939
-4 c4 0 11 -7 14 -15 5 -13 0 -15 -29 -9 -33 6 -35 5 -35 -20 0 -19 5 -26 20
-26 11 0 20 5 20 10 0 6 7 10 15 10 19 0 19 -14 1 -29 -26 -22 -70 -9 -81 23
-8 24 -6 31 14 47 14 11 31 17 38 14 8 -3 18 -5 23 -5z m248 -6 c34 -24 28
-44 -13 -44 -19 0 -35 -5 -35 -11 0 -8 12 -9 37 -4 33 6 35 5 24 -9 -16 -19
-62 -21 -79 -4 -19 19 -14 55 10 72 12 9 25 16 28 16 3 0 16 -7 28 -16z m130
4 c14 -14 16 -88 2 -88 -5 0 -10 6 -11 13 -1 6 -2 21 -3 32 0 13 -8 20 -21 20
-15 0 -21 -8 -23 -32 -5 -50 -22 -39 -22 13 0 34 3 45 13 41 8 -3 20 -1 28 4
19 12 23 11 37 -3z m290 -4 c34 -24 28 -44 -13 -44 -19 0 -35 -5 -35 -11 0 -8
12 -9 37 -4 33 6 35 5 24 -9 -16 -19 -62 -21 -79 -4 -19 19 -14 55 10 72 12 9
25 16 28 16 3 0 16 -7 28 -16z m220 0 c34 -24 28 -44 -13 -44 -19 0 -35 -5
-35 -11 0 -8 12 -9 37 -4 33 6 35 5 24 -9 -16 -19 -62 -21 -79 -4 -19 19 -14
55 10 72 12 9 25 16 28 16 3 0 16 -7 28 -16z m250 -23 c3 -18 -1 -21 -33 -21
-24 0 -34 -4 -29 -11 4 -6 19 -9 36 -5 21 4 28 2 26 -7 -6 -17 -56 -21 -74 -6
-23 19 -18 68 9 78 30 11 61 -2 65 -28z m-638 17 c0 -6 -10 -22 -22 -35 l-21
-23 21 0 c11 0 24 -4 27 -10 4 -6 -12 -10 -39 -10 -52 0 -58 11 -24 47 l21 23
-21 0 c-12 0 -22 5 -22 10 0 6 18 10 40 10 24 0 40 -5 40 -12z m60 -33 c0 -33
-4 -45 -15 -45 -11 0 -15 12 -15 45 0 33 4 45 15 45 11 0 15 -12 15 -45z m460
38 c0 -4 -12 -20 -27 -35 l-27 -28 27 0 c15 0 27 -4 27 -10 0 -5 -20 -10 -45
-10 -25 0 -45 3 -45 7 0 4 12 20 27 35 26 27 26 28 5 28 -11 0 -24 5 -27 10
-4 6 12 10 39 10 25 0 46 -3 46 -7z m210 -3 c0 -5 -7 -10 -15 -14 -9 -3 -15
-18 -15 -36 0 -20 -5 -30 -15 -30 -11 0 -15 12 -15 44 0 43 1 45 30 44 17 -1
30 -4 30 -8z m-440 -90 c0 -5 -18 -10 -40 -10 -22 0 -40 5 -40 10 0 6 18 10
40 10 22 0 40 -4 40 -10z m-1865 -259 c70 -32 105 -86 105 -161 0 -73 -33
-126 -102 -161 -76 -39 -176 -12 -223 60 -33 49 -38 144 -10 189 53 83 145
112 230 73z m1655 -108 c0 -34 1 -35 18 -20 26 23 53 23 30 0 -16 -15 -16 -18
3 -45 16 -22 17 -28 6 -28 -8 0 -20 7 -27 15 -7 8 -16 15 -21 15 -5 0 -9 -7
-9 -15 0 -8 -7 -15 -15 -15 -12 0 -15 14 -15 65 0 51 3 65 15 65 11 0 15 -11
15 -37z m487 21 c-3 -3 -12 -4 -19 -1 -8 3 -5 6 6 6 11 1 17 -2 13 -5z m-1416
-24 c10 -6 19 -20 19 -30 0 -16 -7 -20 -36 -20 -22 0 -33 -4 -29 -11 4 -6 19
-7 37 -4 23 6 29 4 26 -6 -6 -18 -55 -24 -74 -8 -20 16 -18 66 4 78 22 13 29
13 53 1z m231 -2 c8 -7 18 -21 21 -30 5 -15 0 -18 -28 -18 -19 0 -35 -5 -35
-11 0 -7 11 -9 31 -5 22 4 29 2 26 -7 -6 -18 -68 -15 -80 4 -5 9 -7 28 -3 42
5 22 15 29 47 36 3 0 12 -5 21 -11z m315 1 c8 -8 17 -8 33 1 31 16 50 -3 50
-51 0 -28 -4 -39 -15 -39 -10 0 -15 11 -15 35 0 23 -5 35 -14 35 -15 0 -26
-21 -26 -51 0 -10 -4 -19 -10 -19 -5 0 -10 16 -10 35 0 28 -4 35 -20 35 -16 0
-20 -7 -20 -35 0 -24 -5 -35 -15 -35 -11 0 -15 12 -15 44 0 41 2 45 28 49 15
2 29 5 33 6 3 0 10 -4 16 -10z m187 -5 c9 -8 16 -31 16 -49 0 -33 -1 -34 -42
-32 -55 3 -66 32 -19 48 17 6 31 15 31 20 0 13 -24 11 -38 -3 -6 -6 -15 -8
-19 -4 -9 9 24 36 43 36 7 0 20 -7 28 -16z m122 2 c23 -18 10 -35 -15 -19 -14
9 -21 9 -30 0 -27 -27 5 -61 34 -37 18 15 30 7 22 -15 -8 -18 -58 -20 -75 -3
-18 18 -15 65 6 77 23 14 35 13 58 -3z m256 -10 c16 -24 7 -36 -27 -36 -19 0
-35 -5 -35 -11 0 -8 12 -9 37 -4 33 6 35 5 23 -10 -8 -10 -25 -15 -44 -13 -23
2 -33 10 -41 32 -8 24 -6 31 14 47 24 20 59 18 73 -5z m114 16 c19 -11 22 -92
4 -92 -5 0 -10 16 -10 35 0 28 -4 35 -20 35 -16 0 -20 -7 -20 -35 0 -24 -5
-35 -15 -35 -11 0 -15 12 -15 44 0 41 2 45 28 49 15 2 29 5 32 5 3 1 10 -2 16
-6z m306 -16 c16 -24 7 -36 -27 -36 -19 0 -35 -5 -35 -11 0 -8 12 -9 37 -4 33
6 35 5 24 -9 -19 -23 -68 -20 -81 3 -14 28 -13 38 11 62 21 21 56 19 71 -5z
m-1402 2 c0 -6 -10 -22 -22 -35 l-21 -23 26 0 c15 0 27 -4 27 -10 0 -5 -20
-10 -45 -10 -51 0 -56 11 -23 47 l21 23 -21 0 c-12 0 -22 5 -22 10 0 6 18 10
40 10 24 0 40 -5 40 -12z m220 2 c0 -4 -9 -10 -20 -13 -15 -4 -20 -14 -20 -36
0 -21 -5 -31 -15 -31 -11 0 -15 12 -15 44 0 44 0 44 35 44 19 0 35 -4 35 -8z
m1010 3 c0 -4 -12 -20 -27 -35 l-27 -28 27 0 c15 0 27 -4 27 -10 0 -5 -20 -10
-45 -10 -25 0 -45 3 -45 7 0 4 12 20 27 35 26 27 26 28 5 28 -11 0 -24 5 -27
10 -4 6 12 10 39 10 25 0 46 -3 46 -7z m60 -38 c0 -33 -4 -45 -15 -45 -11 0
-15 12 -15 45 0 33 4 45 15 45 11 0 15 -12 15 -45z m6428 -134 c2 -85 -1 -117
-10 -123 -7 -4 -37 -8 -65 -8 -29 0 -53 -4 -53 -10 0 -5 9 -10 20 -10 23 0 47
-37 32 -52 -5 -5 -47 -8 -93 -6 -76 3 -84 5 -84 23 0 12 12 26 30 35 l30 15
-65 5 -65 5 -3 123 -3 122 163 -2 163 -3 3 -114z m-7948 99 c0 -5 -4 -10 -10
-10 -5 0 -10 5 -10 10 0 6 5 10 10 10 6 0 10 -4 10 -10z m1690 0 c0 -5 -7 -10
-15 -10 -8 0 -15 5 -15 10 0 6 7 10 15 10 8 0 15 -4 15 -10z m-1730 -20 c0 -5
-18 -10 -40 -10 -22 0 -40 5 -40 10 0 6 18 10 40 10 22 0 40 -4 40 -10z m580
0 c0 -5 -16 -10 -35 -10 -19 0 -35 5 -35 10 0 6 16 10 35 10 19 0 35 -4 35
-10z m1250 0 c0 -5 -18 -10 -40 -10 -22 0 -40 5 -40 10 0 6 18 10 40 10 22 0
40 -4 40 -10z m-2356 -286 c13 -12 16 -40 16 -144 0 -104 -3 -132 -16 -144
-12 -13 -41 -16 -148 -16 -89 0 -136 4 -144 12 -17 17 -17 279 0 296 8 8 55
12 144 12 107 0 136 -3 148 -16z m636 -71 c0 -8 -13 -13 -36 -13 -45 0 -42
-24 4 -28 44 -4 40 -22 -4 -22 -45 0 -42 -24 4 -28 49 -5 38 -22 -13 -22 l-45
0 0 59 c0 58 1 60 28 63 50 6 62 4 62 -9z m60 -48 c0 -37 -4 -65 -10 -65 -6 0
-10 28 -10 65 0 37 4 65 10 65 6 0 10 -28 10 -65z m1160 55 c0 -5 -5 -10 -11
-10 -5 0 -7 5 -4 10 3 6 8 10 11 10 2 0 4 -4 4 -10z m-1103 -6 c-3 -3 -12 -4
-19 -1 -8 3 -5 6 6 6 11 1 17 -2 13 -5z m740 -10 c3 -9 1 -25 -5 -35 -7 -11
-8 -20 -2 -24 15 -9 12 -45 -4 -45 -8 0 -16 10 -18 23 -2 14 -11 23 -25 25
-19 3 -23 -1 -23 -22 0 -16 -6 -26 -15 -26 -12 0 -15 13 -15 60 l0 60 50 0
c38 0 52 -4 57 -16z m-535 -16 c8 -7 18 -21 21 -30 5 -15 0 -18 -34 -18 -27 0
-38 -4 -33 -11 4 -6 19 -9 36 -5 21 4 28 2 25 -7 -6 -18 -68 -15 -80 4 -5 9
-7 28 -3 42 5 22 15 29 47 36 3 0 12 -5 21 -11z m250 -12 c16 -24 7 -36 -27
-36 -19 0 -35 -5 -35 -11 0 -8 12 -9 37 -4 33 6 35 5 24 -9 -19 -23 -68 -20
-81 3 -14 28 -13 38 11 62 21 21 56 19 71 -5z m386 15 c8 -4 16 -27 19 -49 l5
-41 -43 2 c-56 3 -68 32 -20 50 17 6 31 15 31 19 0 12 -25 9 -38 -4 -6 -6 -15
-8 -19 -4 -9 8 24 36 41 36 6 0 17 -4 24 -9z m130 -3 c9 -9 15 -9 24 0 16 16
23 15 42 -4 21 -20 22 -84 1 -84 -11 0 -15 11 -15 36 0 28 -3 35 -17 32 -12
-2 -19 -14 -21 -36 -5 -46 -32 -43 -32 3 0 24 -5 35 -15 35 -10 0 -15 -11 -15
-35 0 -24 -5 -35 -15 -35 -11 0 -15 12 -15 44 0 41 2 45 28 49 15 2 29 5 33 6
3 0 10 -4 17 -11z m330 -4 c34 -24 28 -44 -13 -44 -19 0 -35 -5 -35 -11 0 -8
12 -9 37 -4 33 6 35 5 24 -9 -16 -19 -62 -21 -79 -4 -19 19 -14 55 10 72 12 9
25 16 28 16 3 0 16 -7 28 -16z m-1298 -39 c0 -33 -4 -45 -15 -45 -11 0 -15 12
-15 45 0 33 4 45 15 45 11 0 15 -12 15 -45z m340 38 c0 -4 -12 -20 -27 -35
l-27 -28 27 0 c15 0 27 -4 27 -10 0 -5 -20 -10 -45 -10 -25 0 -45 3 -45 7 0 4
12 20 27 35 l27 28 -27 0 c-15 0 -27 5 -27 10 0 6 20 10 45 10 25 0 45 -3 45
-7z m210 -3 c0 -4 -7 -10 -15 -14 -9 -3 -15 -18 -15 -36 0 -20 -5 -30 -15 -30
-11 0 -15 11 -15 43 0 42 1 44 30 45 17 0 30 -3 30 -8z m550 -35 c0 -25 -4
-45 -10 -45 -5 0 -10 20 -10 45 0 25 5 45 10 45 6 0 10 -20 10 -45z m100 34
c0 -5 -6 -9 -14 -9 -15 0 -26 -21 -26 -51 0 -10 -4 -19 -10 -19 -5 0 -10 20
-10 43 0 42 1 44 30 45 17 0 30 -4 30 -9z m230 4 c0 -4 -12 -20 -27 -35 l-27
-28 27 0 c15 0 27 -4 27 -10 0 -5 -20 -10 -45 -10 -25 0 -45 3 -45 7 0 4 12
20 27 35 26 27 26 28 5 28 -11 0 -24 5 -27 10 -4 6 12 10 39 10 25 0 46 -3 46
-7z m-1320 -33 c0 -5 -18 -10 -40 -10 -22 0 -40 5 -40 10 0 6 18 10 40 10 22
0 40 -4 40 -10z"/>
<path d="M1080 3508 c-47 -13 -68 -34 -81 -78 -16 -52 3 -105 45 -131 41 -25
141 -26 176 -2 63 43 64 69 4 78 -37 5 -48 3 -58 -10 -7 -10 -22 -15 -37 -13
-21 3 -24 8 -24 43 0 35 3 40 24 43 14 2 30 -3 36 -11 14 -20 105 -11 105 10
0 23 -45 61 -86 72 -46 13 -57 13 -104 -1z"/>
<path d="M1415 3514 c-78 -19 -107 -52 -107 -121 0 -38 6 -51 31 -77 30 -30
35 -31 117 -31 84 0 86 1 115 33 50 56 37 148 -26 180 -25 13 -103 22 -130 16z
m73 -86 c28 -28 7 -78 -33 -78 -27 0 -45 18 -45 45 0 27 18 45 45 45 12 0 26
-5 33 -12z"/>
<path d="M2615 3511 c-67 -17 -94 -47 -80 -90 7 -22 71 -51 113 -51 38 0 72
-11 72 -22 0 -6 -17 -8 -42 -3 -62 9 -101 10 -122 2 -18 -7 -18 -8 -1 -27 27
-29 80 -43 155 -38 48 2 75 9 88 21 57 51 21 102 -83 119 -84 13 -107 28 -44
28 25 0 50 -5 56 -11 14 -14 78 3 78 21 0 36 -123 69 -190 51z"/>
<path d="M460 3395 l0 -115 55 0 55 0 0 40 c0 39 1 40 35 40 34 0 35 -1 35
-40 l0 -40 50 0 50 0 0 115 0 115 -49 0 -50 0 -3 -37 c-3 -35 -6 -38 -35 -41
-32 -3 -33 -2 -33 37 l0 41 -55 0 -55 0 0 -115z"/>
<path d="M780 3395 l0 -115 50 0 50 0 0 115 0 115 -50 0 -50 0 0 -115z"/>
<path d="M1640 3396 l0 -116 85 0 c134 0 185 32 185 117 0 33 -7 50 -29 75
-29 33 -30 33 -135 36 l-106 4 0 -116z m158 32 c29 -29 7 -78 -35 -78 -21 0
-23 5 -23 45 0 40 2 45 23 45 13 0 28 -5 35 -12z"/>
<path d="M1950 3395 l0 -115 120 0 120 0 0 30 0 30 -70 0 c-56 0 -70 3 -70 15
0 12 14 15 70 15 l70 0 0 30 0 30 -70 0 c-40 0 -70 4 -70 10 0 6 30 10 70 10
l70 0 0 30 0 30 -120 0 -120 0 0 -115z"/>
<path d="M2230 3395 l0 -115 50 0 50 0 0 41 0 40 38 -3 c35 -3 37 -5 40 -40 3
-38 4 -38 48 -38 42 0 44 1 44 31 0 17 -5 40 -11 51 -8 14 -8 23 0 31 18 18
13 75 -9 97 -18 18 -33 20 -135 20 l-115 0 0 -115z m178 43 c-3 -7 -21 -14
-41 -16 -28 -2 -37 1 -37 12 0 12 11 16 41 16 28 0 39 -4 37 -12z"/>
<path d="M1505 3005 c-55 -20 -75 -47 -75 -105 0 -53 29 -94 75 -106 50 -12
133 1 160 26 40 37 33 57 -20 62 -31 2 -46 -1 -50 -10 -3 -8 -16 -12 -32 -10
-23 2 -29 8 -31 35 -4 40 25 60 54 38 20 -15 67 -18 98 -6 17 6 16 9 -9 39
-24 29 -77 52 -115 52 -8 -1 -33 -7 -55 -15z"/>
<path d="M1805 3005 c-50 -18 -74 -50 -75 -97 0 -82 42 -118 140 -118 99 0
139 32 140 113 0 57 -26 89 -86 106 -50 14 -70 13 -119 -4z m89 -68 c12 -9 17
-23 14 -42 -3 -27 -7 -30 -38 -30 -31 0 -35 3 -38 30 -3 26 17 55 38 55 3 0
14 -6 24 -13z"/>
<path d="M3135 3005 c-50 -18 -74 -50 -75 -97 0 -82 42 -118 140 -118 99 0
139 32 140 113 0 57 -26 89 -86 106 -50 14 -70 13 -119 -4z m89 -68 c12 -9 17
-23 14 -42 -3 -27 -7 -30 -38 -30 -31 0 -35 3 -38 30 -3 26 17 55 38 55 3 0
14 -6 24 -13z"/>
<path d="M4275 3005 c-22 -8 -41 -15 -42 -15 -10 -1 -33 -66 -33 -96 0 -28 8
-44 34 -70 31 -31 40 -34 91 -34 31 0 65 5 75 10 13 7 21 7 25 0 3 -5 15 -10
26 -10 17 0 19 7 19 60 l0 60 -65 0 c-57 0 -65 -2 -65 -19 0 -11 6 -22 13 -25
6 -3 -1 -4 -18 -3 -26 2 -30 6 -33 34 -4 42 29 64 58 38 15 -14 29 -16 65 -11
25 4 45 11 45 16 0 22 -49 62 -85 70 -52 12 -62 12 -110 -5z"/>
<path d="M890 2900 l0 -110 120 0 120 0 0 30 0 30 -70 0 c-90 0 -92 18 -2 22
65 3 67 4 70 31 l3 27 -70 0 c-90 0 -93 18 -3 22 65 3 67 4 70 31 l3 27 -120
0 -121 0 0 -110z"/>
<path d="M1160 2900 l0 -110 120 0 120 0 0 35 0 35 -70 0 -70 0 0 75 0 75 -50
0 -50 0 0 -110z"/>
<path d="M2040 2900 l0 -110 50 0 50 0 0 35 c0 43 10 44 33 5 23 -39 45 -38
79 2 l27 33 1 -37 0 -38 50 0 50 0 0 110 0 110 -44 0 c-43 0 -47 -2 -85 -56
l-40 -56 -37 56 c-36 55 -38 56 -85 56 l-49 0 0 -110z"/>
<path d="M2410 2900 l0 -110 120 0 120 0 0 30 0 30 -70 0 c-40 0 -70 4 -70 10
0 6 30 10 70 10 l70 0 0 30 0 30 -70 0 c-40 0 -70 4 -70 10 0 6 30 10 70 10
l70 0 0 30 0 30 -120 0 -120 0 0 -110z"/>
<path d="M2760 2975 c0 -34 1 -35 40 -35 l40 0 0 -75 0 -75 50 0 50 0 0 74 0
75 43 3 c39 3 42 5 45 36 l3 32 -135 0 -136 0 0 -35z"/>
<path d="M3450 2900 l0 -110 50 0 50 0 0 38 1 37 27 -33 c34 -41 55 -41 81 1
l21 32 0 -37 0 -38 50 0 50 0 0 110 0 110 -44 0 c-41 0 -45 -2 -80 -56 l-38
-56 -40 56 c-38 54 -41 56 -84 56 l-44 0 0 -110z"/>
<path d="M3860 2944 c42 -57 50 -74 50 -110 l0 -44 50 0 50 0 0 48 c0 40 7 56
46 107 l45 60 -48 3 c-43 3 -50 0 -73 -27 l-25 -31 -20 30 c-18 27 -25 30 -73
30 l-53 0 51 -66z"/>
<path d="M4510 2900 l0 -110 50 0 50 0 0 110 0 110 -50 0 -50 0 0 -110z"/>
<path d="M4642 2978 c3 -31 6 -33 46 -36 l42 -3 0 -75 0 -74 50 0 50 0 0 75 0
75 40 0 c39 0 40 1 40 35 l0 35 -136 0 -135 0 3 -32z"/>
<path d="M4940 2900 l0 -110 50 0 50 0 0 41 c0 39 1 40 33 37 29 -3 32 -6 35
-40 3 -38 4 -38 48 -38 l44 0 0 110 0 110 -45 0 c-45 0 -45 0 -45 -35 0 -33
-2 -35 -35 -35 -33 0 -35 2 -35 35 l0 35 -50 0 -50 0 0 -110z"/>
<path d="M5240 2940 c0 -121 36 -156 151 -148 52 4 66 9 86 32 20 24 23 38 23
107 l0 79 -45 0 -45 0 0 -52 c0 -81 -8 -100 -39 -96 -25 3 -26 6 -29 76 l-3
72 -49 0 -50 0 0 -70z"/>
<path d="M5540 2900 l0 -110 100 0 c126 0 170 15 170 59 0 19 -8 35 -20 44
-18 13 -19 16 -5 27 21 17 19 46 -5 70 -18 18 -33 20 -130 20 l-110 0 0 -110z
m165 40 c-3 -5 -19 -10 -36 -10 -16 0 -29 5 -29 10 0 6 16 10 36 10 21 0 33
-4 29 -10z m10 -80 c-3 -5 -22 -10 -41 -10 -19 0 -34 5 -34 10 0 6 18 10 41
10 24 0 38 -4 34 -10z"/>
<path d="M4648 2294 c-5 -4 -8 -18 -8 -31 0 -22 3 -23 85 -23 69 0 87 3 92 16
3 8 0 21 -6 27 -13 13 -152 23 -163 11z"/>
<path d="M5500 2271 l0 -31 79 0 c81 0 108 12 91 39 -5 10 -35 16 -89 19 l-81
5 0 -32z"/>
<path d="M6276 2192 c-14 -28 -26 -54 -26 -57 0 -3 23 -5 51 -5 48 0 50 1 43
23 -3 12 -14 38 -24 57 l-18 34 -26 -52z"/>
<path d="M8128 2294 c-5 -4 -8 -18 -8 -31 0 -22 3 -23 79 -23 59 0 82 4 91 15
10 12 10 19 1 28 -13 13 -152 23 -163 11z"/>
<path d="M2882 1408 c-7 -7 -12 -18 -12 -25 0 -19 -30 -16 -67 7 l-33 20 2
-41 c1 -22 5 -42 10 -45 4 -3 6 -9 3 -14 -3 -5 4 -15 16 -24 l22 -15 -26 -7
c-15 -3 -24 -10 -21 -15 8 -13 89 -11 119 3 36 16 74 85 79 143 2 21 -73 32
-92 13z"/>
<path d="M3612 1338 c5 -34 38 -37 38 -4 0 20 -5 26 -21 26 -15 0 -20 -5 -17
-22z"/>
<path d="M601 1362 c-5 -10 -6 -24 -1 -31 11 -19 40 -6 40 18 0 26 -27 35 -39
13z"/>
<path d="M930 1340 c-8 -5 -11 -12 -7 -16 4 -4 13 -2 19 4 6 6 10 14 7 16 -2
3 -11 1 -19 -4z"/>
<path d="M1285 1370 c-3 -5 3 -10 14 -10 12 0 21 5 21 10 0 6 -6 10 -14 10 -8
0 -18 -4 -21 -10z"/>
<path d="M1691 1370 c-19 -11 -9 -45 14 -45 13 0 21 8 23 21 3 23 -17 37 -37
24z"/>
<path d="M4225 1360 c-3 -5 3 -10 15 -10 12 0 18 5 15 10 -3 6 -10 10 -15 10
-5 0 -12 -4 -15 -10z"/>
<path d="M4645 1360 c-3 -5 3 -10 15 -10 12 0 18 5 15 10 -3 6 -10 10 -15 10
-5 0 -12 -4 -15 -10z"/>
<path d="M4865 1360 c-3 -5 3 -10 15 -10 12 0 18 5 15 10 -3 6 -10 10 -15 10
-5 0 -12 -4 -15 -10z"/>
<path d="M5095 1360 c-4 -6 5 -10 20 -10 15 0 24 4 20 10 -3 6 -12 10 -20 10
-8 0 -17 -4 -20 -10z"/>
<path d="M2782 964 c-20 -14 -22 -24 -22 -104 0 -80 2 -90 22 -104 35 -25 148
-22 182 5 24 19 26 26 26 99 0 73 -2 80 -26 99 -34 27 -147 30 -182 5z m169
-14 c16 -9 19 -22 19 -85 0 -96 -9 -105 -100 -105 -85 0 -100 15 -100 102 0
80 19 98 101 98 33 0 69 -5 80 -10z"/>
<path d="M2926 932 c-3 -6 -1 -14 5 -17 15 -10 25 3 12 16 -7 7 -13 7 -17 1z"/>
<path d="M2830 900 c-11 -11 -20 -29 -20 -40 0 -27 35 -60 63 -60 53 0 77 75
35 104 -30 21 -54 20 -78 -4z m74 -22 c23 -38 -36 -77 -64 -43 -10 12 -10 21
-1 41 13 29 47 30 65 2z"/>
<path d="M3625 890 c-4 -6 5 -10 20 -10 15 0 24 4 20 10 -3 6 -12 10 -20 10
-8 0 -17 -4 -20 -10z"/>
<path d="M3865 890 c-3 -5 3 -10 15 -10 12 0 18 5 15 10 -3 6 -10 10 -15 10
-5 0 -12 -4 -15 -10z"/>
<path d="M4364 855 c-17 -13 -17 -14 -2 -15 9 0 20 5 23 11 11 17 0 20 -21 4z"/>
<path d="M4725 890 c-3 -5 3 -10 14 -10 12 0 21 5 21 10 0 6 -6 10 -14 10 -8
0 -18 -4 -21 -10z"/>
<path d="M5145 890 c-3 -5 3 -10 14 -10 12 0 21 5 21 10 0 6 -6 10 -14 10 -8
0 -18 -4 -21 -10z"/>
<path d="M11210 750 l0 -80 140 0 140 0 0 80 0 80 -140 0 -140 0 0 -80z m101
12 c-7 -13 -7 -22 0 -29 7 -7 7 -13 1 -17 -5 -3 -17 3 -27 14 -15 16 -15 22
-5 35 19 23 43 20 31 -3z m59 8 c0 -16 -23 -60 -32 -60 -11 0 -10 14 4 45 11
25 28 34 28 15z m54 -12 c7 -12 6 -21 -3 -32 -21 -25 -29 -19 -28 19 1 36 13
41 31 13z"/>
<path d="M11278 633 c39 -2 105 -2 145 0 39 1 7 3 -73 3 -80 0 -112 -2 -72 -3z"/>
<path d="M11345 590 c3 -5 8 -10 11 -10 2 0 4 5 4 10 0 6 -5 10 -11 10 -5 0
-7 -4 -4 -10z"/>
<path d="M11318 553 c17 -2 47 -2 65 0 17 2 3 4 -33 4 -36 0 -50 -2 -32 -4z"/>
<path d="M4420 425 c0 -9 9 -15 25 -15 16 0 25 6 25 15 0 9 -9 15 -25 15 -16
0 -25 -6 -25 -15z"/>
<path d="M3925 410 c-3 -5 3 -10 15 -10 12 0 18 5 15 10 -3 6 -10 10 -15 10
-5 0 -12 -4 -15 -10z"/>
<path d="M4155 410 c-3 -5 3 -10 14 -10 12 0 21 5 21 10 0 6 -6 10 -14 10 -8
0 -18 -4 -21 -10z"/>
<path d="M4564 375 c-17 -13 -17 -14 -2 -15 9 0 20 5 23 11 11 17 0 20 -21 4z"/>
<path d="M5015 410 c-3 -5 3 -10 15 -10 12 0 18 5 15 10 -3 6 -10 10 -15 10
-5 0 -12 -4 -15 -10z"/>
</g>
</svg>
